<?xml version="1.0" encoding="UTF-8"?>
<svg xmlns="http://www.w3.org/2000/svg" xmlns:xlink="http://www.w3.org/1999/xlink" width="192pt" height="191.999996pt" viewBox="0 0 192 191.999996" version="1.2">
<defs>
<clipPath id="clip1">
  <path d="M 1.5 56 L 173.707031 56 L 173.707031 160 L 1.5 160 Z M 1.5 56 "/>
</clipPath>
<clipPath id="clip2">
  <path d="M 137 6.765625 L 187.726562 6.765625 L 187.726562 82.976562 L 137 82.976562 Z M 137 6.765625 "/>
</clipPath>
</defs>
<g id="surface1">
<g clip-path="url(#clip1)" clip-rule="nonzero">
<path style=" stroke:none;fill-rule:nonzero;fill:rgb(0%,0%,0%);fill-opacity:1;" d="M 38.136719 130 L 56.882812 104.292969 C 57.347656 104.769531 57.796875 105.261719 58.230469 105.765625 C 58.664062 106.273438 59.082031 106.792969 59.484375 107.324219 C 59.886719 107.855469 60.273438 108.398438 60.640625 108.953125 C 61.011719 109.507812 61.363281 110.074219 61.695312 110.648438 C 62.027344 111.226562 62.34375 111.8125 62.640625 112.410156 C 62.9375 113.007812 63.21875 113.613281 63.476562 114.226562 C 63.738281 114.839844 63.976562 115.460938 64.199219 116.089844 C 64.421875 116.71875 64.621094 117.351562 64.804688 117.992188 C 64.984375 118.632812 65.148438 119.28125 65.289062 119.929688 C 65.429688 120.582031 65.550781 121.238281 65.652344 121.894531 C 65.753906 122.554688 65.835938 123.214844 65.894531 123.878906 C 65.957031 124.542969 65.996094 125.207031 66.015625 125.875 C 66.035156 126.539062 66.03125 127.207031 66.011719 127.871094 C 65.988281 128.539062 65.945312 129.203125 65.882812 129.867188 C 65.816406 130.53125 65.734375 131.191406 65.628906 131.847656 C 65.527344 132.507812 65.402344 133.160156 65.257812 133.8125 C 65.109375 134.460938 64.945312 135.109375 64.761719 135.746094 C 64.578125 136.386719 64.371094 137.023438 64.148438 137.648438 C 63.921875 138.277344 63.679688 138.898438 63.417969 139.507812 C 63.15625 140.121094 62.875 140.726562 62.574219 141.320312 C 62.273438 141.914062 61.957031 142.5 61.617188 143.078125 C 61.28125 143.652344 60.929688 144.214844 60.558594 144.769531 C 60.1875 145.324219 59.796875 145.863281 59.394531 146.394531 C 58.988281 146.921875 58.566406 147.4375 58.128906 147.941406 C 57.695312 148.445312 57.242188 148.933594 56.773438 149.410156 C 56.308594 149.886719 55.824219 150.34375 55.332031 150.789062 C 54.835938 151.234375 54.324219 151.664062 53.804688 152.078125 C 53.28125 152.492188 52.746094 152.890625 52.199219 153.273438 C 51.652344 153.652344 51.09375 154.015625 50.523438 154.363281 C 49.957031 154.707031 49.375 155.035156 48.785156 155.347656 C 48.195312 155.65625 47.597656 155.949219 46.988281 156.222656 C 46.382812 156.496094 45.765625 156.75 45.140625 156.984375 C 44.519531 157.21875 43.886719 157.433594 43.25 157.628906 C 42.613281 157.824219 41.972656 158 41.324219 158.15625 C 40.675781 158.3125 40.023438 158.449219 39.367188 158.566406 C 38.710938 158.679688 38.050781 158.773438 37.390625 158.851562 C 36.726562 158.925781 36.0625 158.980469 35.398438 159.011719 C 34.734375 159.046875 34.066406 159.058594 33.402344 159.050781 C 32.734375 159.042969 32.070312 159.015625 31.402344 158.964844 C 30.738281 158.917969 30.078125 158.847656 29.417969 158.757812 C 28.757812 158.667969 28.101562 158.558594 27.445312 158.425781 C 26.792969 158.296875 26.144531 158.144531 25.5 157.976562 C 24.855469 157.804688 24.21875 157.613281 23.585938 157.402344 C 22.953125 157.191406 22.328125 156.964844 21.710938 156.714844 C 21.089844 156.464844 20.480469 156.195312 19.878906 155.910156 C 19.277344 155.621094 18.6875 155.316406 18.105469 154.992188 C 17.523438 154.667969 16.949219 154.328125 16.390625 153.96875 C 15.828125 153.609375 15.277344 153.234375 14.738281 152.839844 C 14.203125 152.449219 13.675781 152.039062 13.164062 151.613281 C 12.652344 151.1875 12.152344 150.746094 11.667969 150.289062 C 11.179688 149.832031 10.710938 149.359375 10.253906 148.875 C 9.796875 148.390625 9.359375 147.890625 8.933594 147.375 C 8.507812 146.863281 8.097656 146.335938 7.707031 145.800781 C 7.3125 145.261719 6.9375 144.710938 6.578125 144.148438 C 6.222656 143.585938 5.878906 143.015625 5.558594 142.433594 C 5.234375 141.847656 4.929688 141.257812 4.644531 140.65625 C 4.355469 140.054688 4.089844 139.441406 3.839844 138.824219 C 3.59375 138.207031 3.363281 137.582031 3.152344 136.949219 C 2.945312 136.316406 2.753906 135.675781 2.585938 135.03125 C 2.414062 134.390625 2.265625 133.738281 2.132812 133.085938 C 2.003906 132.433594 1.894531 131.777344 1.804688 131.113281 C 1.714844 130.453125 1.648438 129.792969 1.597656 129.128906 C 1.550781 128.464844 1.523438 127.796875 1.515625 127.132812 C 1.507812 126.464844 1.523438 125.796875 1.558594 125.132812 C 1.59375 124.46875 1.648438 123.804688 1.722656 123.140625 C 1.796875 122.480469 1.894531 121.820312 2.011719 121.164062 C 2.125 120.507812 2.261719 119.855469 2.421875 119.207031 C 2.578125 118.5625 2.753906 117.917969 2.949219 117.28125 C 3.148438 116.644531 3.363281 116.015625 3.597656 115.390625 C 3.835938 114.769531 4.089844 114.152344 4.363281 113.546875 C 4.636719 112.9375 4.929688 112.339844 5.238281 111.75 C 5.550781 111.160156 5.878906 110.582031 6.226562 110.011719 C 6.574219 109.441406 6.9375 108.886719 7.316406 108.339844 C 7.699219 107.792969 8.097656 107.257812 8.511719 106.734375 C 8.925781 106.214844 9.355469 105.707031 9.800781 105.210938 C 10.25 104.714844 10.710938 104.234375 11.183594 103.769531 C 11.660156 103.300781 12.152344 102.851562 12.652344 102.414062 C 13.15625 101.976562 13.675781 101.558594 14.203125 101.152344 C 14.734375 100.75 15.277344 100.359375 15.828125 99.992188 C 16.382812 99.621094 16.949219 99.265625 17.523438 98.929688 C 18.101562 98.59375 18.683594 98.277344 19.28125 97.980469 C 19.875 97.679688 20.480469 97.398438 21.09375 97.136719 C 21.707031 96.875 22.324219 96.632812 22.953125 96.410156 C 23.582031 96.183594 24.214844 95.980469 24.855469 95.796875 C 25.496094 95.613281 26.140625 95.449219 26.792969 95.304688 C 27.445312 95.160156 28.097656 95.035156 28.757812 94.933594 C 29.414062 94.828125 30.074219 94.746094 30.738281 94.683594 C 31.402344 94.621094 32.066406 94.578125 32.734375 94.558594 C 33.398438 94.535156 34.066406 94.535156 34.730469 94.554688 C 35.398438 94.574219 36.0625 94.613281 36.726562 94.675781 C 37.390625 94.738281 38.050781 94.820312 38.710938 94.921875 C 39.367188 95.023438 40.023438 95.144531 40.671875 95.289062 C 41.324219 95.429688 41.96875 95.59375 42.609375 95.773438 C 43.25 95.957031 43.886719 96.160156 44.515625 96.382812 C 45.144531 96.605469 45.765625 96.84375 46.378906 97.105469 C 46.992188 97.367188 47.59375 97.644531 48.191406 97.941406 L 29.441406 123.660156 C 29.230469 123.945312 29.046875 124.246094 28.894531 124.570312 C 28.746094 124.890625 28.625 125.222656 28.539062 125.566406 C 28.453125 125.914062 28.402344 126.261719 28.386719 126.617188 C 28.371094 126.972656 28.390625 127.324219 28.441406 127.675781 C 28.496094 128.027344 28.582031 128.371094 28.707031 128.703125 C 28.828125 129.039062 28.980469 129.355469 29.164062 129.660156 C 29.347656 129.964844 29.5625 130.246094 29.800781 130.507812 C 30.042969 130.769531 30.304688 131.003906 30.59375 131.214844 C 30.878906 131.421875 31.183594 131.601562 31.507812 131.75 C 31.828125 131.898438 32.164062 132.015625 32.507812 132.097656 C 32.855469 132.179688 33.203125 132.230469 33.558594 132.242188 C 33.914062 132.257812 34.265625 132.234375 34.617188 132.179688 C 34.96875 132.121094 35.308594 132.03125 35.644531 131.90625 C 35.976562 131.785156 36.292969 131.628906 36.59375 131.441406 C 36.898438 131.253906 37.179688 131.039062 37.4375 130.796875 C 37.695312 130.554688 37.929688 130.289062 38.136719 130 Z M 113.117188 67.632812 L 130.65625 67.632812 C 131.007812 67.632812 131.359375 67.667969 131.703125 67.738281 C 132.050781 67.808594 132.386719 67.910156 132.714844 68.042969 C 133.039062 68.179688 133.351562 68.347656 133.644531 68.542969 C 133.9375 68.738281 134.210938 68.960938 134.457031 69.210938 C 134.707031 69.460938 134.933594 69.734375 135.128906 70.027344 C 135.324219 70.320312 135.492188 70.628906 135.625 70.957031 C 135.761719 71.28125 135.863281 71.617188 135.933594 71.964844 C 136 72.3125 136.035156 72.660156 136.039062 73.015625 C 136.039062 73.367188 136.070312 73.71875 136.140625 74.066406 C 136.210938 74.410156 136.3125 74.746094 136.445312 75.074219 C 136.582031 75.402344 136.746094 75.710938 136.945312 76.003906 C 137.140625 76.296875 137.363281 76.570312 137.613281 76.820312 C 137.863281 77.070312 138.136719 77.292969 138.429688 77.488281 C 138.722656 77.6875 139.03125 77.851562 139.359375 77.988281 C 139.6875 78.121094 140.023438 78.222656 140.367188 78.292969 C 140.714844 78.363281 141.066406 78.394531 141.417969 78.394531 C 141.773438 78.394531 142.121094 78.363281 142.46875 78.292969 C 142.816406 78.222656 143.152344 78.121094 143.476562 77.988281 C 143.804688 77.851562 144.113281 77.6875 144.410156 77.488281 C 144.703125 77.292969 144.972656 77.070312 145.222656 76.820312 C 145.472656 76.570312 145.695312 76.296875 145.894531 76.003906 C 146.089844 75.710938 146.253906 75.402344 146.390625 75.074219 C 146.527344 74.746094 146.628906 74.410156 146.695312 74.066406 C 146.765625 73.71875 146.800781 73.367188 146.800781 73.015625 C 146.800781 72.484375 146.773438 71.957031 146.71875 71.433594 C 146.667969 70.90625 146.589844 70.386719 146.488281 69.867188 C 146.382812 69.347656 146.253906 68.835938 146.101562 68.332031 C 145.945312 67.824219 145.769531 67.328125 145.566406 66.839844 C 145.363281 66.351562 145.136719 65.875 144.886719 65.40625 C 144.640625 64.941406 144.367188 64.488281 144.074219 64.050781 C 143.78125 63.609375 143.464844 63.1875 143.128906 62.777344 C 142.792969 62.371094 142.441406 61.976562 142.066406 61.605469 C 141.691406 61.230469 141.300781 60.875 140.894531 60.539062 C 140.484375 60.207031 140.058594 59.890625 139.621094 59.597656 C 139.179688 59.304688 138.730469 59.03125 138.261719 58.78125 C 137.796875 58.53125 137.320312 58.308594 136.832031 58.105469 C 136.34375 57.902344 135.847656 57.722656 135.339844 57.570312 C 134.835938 57.414062 134.324219 57.289062 133.804688 57.183594 C 133.285156 57.078125 132.761719 57.003906 132.238281 56.949219 C 131.710938 56.898438 131.183594 56.871094 130.65625 56.871094 L 103.75 56.871094 C 102.785156 56.871094 101.886719 57.113281 101.050781 57.59375 C 100.21875 58.078125 99.5625 58.734375 99.082031 59.570312 C 98.601562 60.40625 98.363281 61.304688 98.367188 62.269531 C 98.371094 63.234375 98.613281 64.128906 99.101562 64.960938 L 106.9375 78.394531 L 68.269531 78.394531 L 57.273438 59.539062 C 56.789062 58.714844 56.132812 58.0625 55.304688 57.585938 C 54.472656 57.109375 53.582031 56.871094 52.625 56.871094 L 33.789062 56.871094 C 33.4375 56.871094 33.085938 56.90625 32.738281 56.972656 C 32.390625 57.042969 32.054688 57.144531 31.730469 57.28125 C 31.402344 57.414062 31.09375 57.582031 30.800781 57.777344 C 30.503906 57.972656 30.234375 58.195312 29.984375 58.445312 C 29.734375 58.695312 29.511719 58.96875 29.3125 59.261719 C 29.117188 59.554688 28.953125 59.867188 28.816406 60.191406 C 28.683594 60.519531 28.578125 60.855469 28.511719 61.203125 C 28.441406 61.546875 28.40625 61.898438 28.40625 62.25 C 28.40625 62.605469 28.441406 62.957031 28.511719 63.300781 C 28.578125 63.648438 28.683594 63.984375 28.816406 64.3125 C 28.953125 64.636719 29.117188 64.949219 29.3125 65.242188 C 29.511719 65.535156 29.734375 65.808594 29.984375 66.058594 C 30.234375 66.308594 30.503906 66.53125 30.800781 66.726562 C 31.09375 66.921875 31.402344 67.089844 31.730469 67.222656 C 32.054688 67.359375 32.390625 67.460938 32.738281 67.53125 C 33.085938 67.597656 33.4375 67.632812 33.789062 67.632812 L 49.53125 67.632812 L 58.757812 83.449219 L 48.191406 97.941406 C 51.445312 99.574219 54.339844 101.691406 56.882812 104.292969 L 64.679688 93.597656 L 85.644531 129.539062 C 85.820312 129.851562 86.027344 130.140625 86.257812 130.410156 C 86.492188 130.679688 86.75 130.921875 87.03125 131.140625 C 87.3125 131.359375 87.613281 131.550781 87.929688 131.707031 C 88.25 131.867188 88.582031 131.992188 88.925781 132.085938 C 89.269531 132.179688 89.621094 132.238281 89.976562 132.261719 C 90.332031 132.285156 90.683594 132.273438 91.039062 132.226562 C 91.390625 132.179688 91.738281 132.097656 92.074219 131.980469 C 92.410156 131.867188 92.734375 131.71875 93.042969 131.539062 C 93.347656 131.359375 93.636719 131.152344 93.902344 130.914062 C 94.167969 130.679688 94.410156 130.417969 94.625 130.132812 C 94.839844 129.847656 95.023438 129.546875 95.179688 129.226562 C 95.332031 128.90625 95.453125 128.570312 95.542969 128.226562 C 95.632812 127.882812 95.683594 127.53125 95.703125 127.175781 C 95.722656 126.820312 95.707031 126.464844 95.65625 126.113281 C 95.601562 125.761719 95.519531 125.414062 95.398438 125.082031 C 95.277344 124.746094 95.125 124.425781 94.941406 124.117188 L 74.550781 89.160156 L 113.214844 89.160156 L 120.738281 102.058594 C 123.527344 99.722656 126.625 97.910156 130.027344 96.621094 Z M 141.417969 94.539062 C 137.496094 94.539062 133.699219 95.234375 130.027344 96.621094 L 146.066406 124.117188 C 146.246094 124.421875 146.398438 124.742188 146.515625 125.078125 C 146.632812 125.414062 146.714844 125.757812 146.765625 126.109375 C 146.816406 126.460938 146.832031 126.8125 146.808594 127.167969 C 146.789062 127.519531 146.734375 127.871094 146.644531 128.214844 C 146.558594 128.558594 146.433594 128.886719 146.28125 129.207031 C 146.125 129.527344 145.941406 129.828125 145.726562 130.109375 C 145.511719 130.394531 145.273438 130.652344 145.007812 130.886719 C 144.742188 131.125 144.457031 131.332031 144.148438 131.511719 C 143.84375 131.6875 143.519531 131.835938 143.183594 131.949219 C 142.851562 132.066406 142.507812 132.148438 142.15625 132.195312 C 141.800781 132.242188 141.449219 132.253906 141.09375 132.230469 C 140.742188 132.210938 140.394531 132.152344 140.050781 132.0625 C 139.707031 131.96875 139.375 131.84375 139.058594 131.6875 C 138.738281 131.53125 138.441406 131.34375 138.160156 131.128906 C 137.878906 130.914062 137.621094 130.671875 137.386719 130.402344 C 137.152344 130.136719 136.945312 129.847656 136.769531 129.542969 L 120.738281 102.058594 C 120.257812 102.457031 119.789062 102.875 119.332031 103.304688 C 118.875 103.730469 118.433594 104.171875 118.003906 104.628906 C 117.574219 105.082031 117.15625 105.550781 116.753906 106.03125 C 116.347656 106.507812 115.960938 107 115.585938 107.5 C 115.210938 108.003906 114.851562 108.515625 114.507812 109.039062 C 114.160156 109.558594 113.832031 110.09375 113.519531 110.632812 C 113.203125 111.175781 112.90625 111.726562 112.625 112.285156 C 112.34375 112.84375 112.078125 113.410156 111.828125 113.984375 C 111.578125 114.5625 111.347656 115.140625 111.132812 115.730469 C 110.917969 116.320312 110.71875 116.914062 110.539062 117.511719 C 110.359375 118.113281 110.195312 118.714844 110.050781 119.324219 C 109.90625 119.933594 109.777344 120.546875 109.667969 121.164062 C 109.558594 121.78125 109.46875 122.398438 109.394531 123.019531 C 109.320312 123.644531 109.265625 124.265625 109.226562 124.890625 C 109.191406 125.515625 109.171875 126.140625 109.171875 126.769531 C 109.171875 127.394531 109.1875 128.019531 109.222656 128.644531 C 109.257812 129.269531 109.3125 129.894531 109.382812 130.515625 C 109.457031 131.140625 109.546875 131.757812 109.65625 132.375 C 109.761719 132.992188 109.886719 133.605469 110.03125 134.214844 C 110.175781 134.824219 110.335938 135.429688 110.515625 136.027344 C 110.695312 136.628906 110.890625 137.222656 111.105469 137.8125 C 111.316406 138.402344 111.546875 138.984375 111.796875 139.558594 C 112.042969 140.132812 112.308594 140.699219 112.585938 141.261719 C 112.867188 141.820312 113.164062 142.371094 113.476562 142.914062 C 113.789062 143.457031 114.117188 143.988281 114.460938 144.515625 C 114.804688 145.039062 115.164062 145.550781 115.535156 146.054688 C 115.910156 146.554688 116.296875 147.046875 116.699219 147.527344 C 117.101562 148.007812 117.519531 148.476562 117.945312 148.929688 C 118.375 149.386719 118.816406 149.832031 119.273438 150.261719 C 119.726562 150.691406 120.195312 151.105469 120.675781 151.511719 C 121.15625 151.914062 121.644531 152.300781 122.148438 152.675781 C 122.648438 153.050781 123.160156 153.410156 123.683594 153.753906 C 124.207031 154.097656 124.738281 154.429688 125.28125 154.742188 C 125.824219 155.054688 126.375 155.351562 126.933594 155.632812 C 127.492188 155.914062 128.058594 156.179688 128.636719 156.429688 C 129.210938 156.675781 129.792969 156.910156 130.378906 157.125 C 130.96875 157.339844 131.5625 157.535156 132.160156 157.714844 C 132.761719 157.894531 133.367188 158.058594 133.976562 158.203125 C 134.585938 158.347656 135.199219 158.476562 135.8125 158.585938 C 136.429688 158.691406 137.050781 158.785156 137.671875 158.859375 C 138.292969 158.929688 138.917969 158.984375 139.542969 159.023438 C 140.167969 159.058594 140.792969 159.078125 141.417969 159.078125 C 142.046875 159.078125 142.671875 159.0625 143.296875 159.023438 C 143.921875 158.988281 144.546875 158.933594 145.167969 158.863281 C 145.789062 158.789062 146.410156 158.699219 147.023438 158.589844 C 147.640625 158.484375 148.253906 158.355469 148.863281 158.210938 C 149.472656 158.066406 150.078125 157.90625 150.679688 157.726562 C 151.277344 157.546875 151.871094 157.351562 152.460938 157.136719 C 153.050781 156.921875 153.632812 156.691406 154.207031 156.445312 C 154.78125 156.199219 155.347656 155.933594 155.910156 155.652344 C 156.46875 155.371094 157.019531 155.074219 157.5625 154.761719 C 158.105469 154.449219 158.636719 154.121094 159.160156 153.777344 C 159.683594 153.433594 160.195312 153.074219 160.699219 152.699219 C 161.203125 152.328125 161.691406 151.9375 162.171875 151.535156 C 162.652344 151.132812 163.121094 150.71875 163.574219 150.289062 C 164.03125 149.859375 164.472656 149.414062 164.90625 148.960938 C 165.335938 148.503906 165.75 148.039062 166.152344 147.558594 C 166.554688 147.078125 166.945312 146.585938 167.316406 146.085938 C 167.691406 145.582031 168.050781 145.070312 168.394531 144.546875 C 168.738281 144.023438 169.070312 143.492188 169.382812 142.949219 C 169.695312 142.40625 169.992188 141.855469 170.273438 141.296875 C 170.554688 140.738281 170.820312 140.171875 171.066406 139.59375 C 171.316406 139.019531 171.546875 138.4375 171.761719 137.851562 C 171.976562 137.261719 172.171875 136.667969 172.351562 136.066406 C 172.53125 135.46875 172.691406 134.863281 172.835938 134.253906 C 172.980469 133.644531 173.109375 133.03125 173.21875 132.414062 C 173.328125 131.796875 173.417969 131.179688 173.488281 130.558594 C 173.5625 129.933594 173.617188 129.3125 173.652344 128.6875 C 173.691406 128.0625 173.707031 127.433594 173.707031 126.808594 C 173.707031 126.183594 173.691406 125.558594 173.652344 124.933594 C 173.617188 124.308594 173.5625 123.683594 173.488281 123.0625 C 173.417969 122.441406 173.328125 121.820312 173.21875 121.203125 C 173.109375 120.585938 172.980469 119.972656 172.835938 119.363281 C 172.691406 118.753906 172.53125 118.152344 172.351562 117.550781 C 172.171875 116.949219 171.976562 116.355469 171.761719 115.769531 C 171.546875 115.179688 171.316406 114.597656 171.066406 114.023438 C 170.820312 113.449219 170.554688 112.882812 170.273438 112.320312 C 169.992188 111.761719 169.695312 111.210938 169.382812 110.667969 C 169.066406 110.125 168.738281 109.59375 168.394531 109.070312 C 168.050781 108.546875 167.691406 108.035156 167.316406 107.53125 C 166.945312 107.03125 166.554688 106.539062 166.152344 106.058594 C 165.75 105.582031 165.332031 105.113281 164.902344 104.65625 C 164.472656 104.203125 164.03125 103.761719 163.574219 103.332031 C 163.121094 102.902344 162.652344 102.484375 162.171875 102.082031 C 161.691406 101.679688 161.203125 101.292969 160.699219 100.917969 C 160.195312 100.542969 159.683594 100.1875 159.160156 99.84375 C 158.636719 99.5 158.105469 99.167969 157.5625 98.855469 C 157.019531 98.542969 156.46875 98.246094 155.910156 97.964844 C 155.347656 97.6875 154.78125 97.421875 154.207031 97.171875 C 153.632812 96.925781 153.050781 96.695312 152.460938 96.480469 C 151.871094 96.265625 151.277344 96.070312 150.679688 95.890625 C 150.078125 95.710938 149.472656 95.550781 148.863281 95.40625 C 148.253906 95.261719 147.640625 95.136719 147.023438 95.027344 C 146.40625 94.917969 145.789062 94.828125 145.167969 94.757812 C 144.542969 94.683594 143.921875 94.628906 143.296875 94.59375 C 142.671875 94.558594 142.042969 94.539062 141.417969 94.539062 Z M 141.417969 94.539062 "/>
</g>
<g clip-path="url(#clip2)" clip-rule="nonzero">
<path style=" stroke:none;fill-rule:nonzero;fill:rgb(0%,0%,0%);fill-opacity:1;" d="M 187.726562 39.449219 C 187.726562 39.722656 187.667969 39.996094 187.539062 40.25 C 187.234375 40.867188 186.609375 41.257812 185.917969 41.257812 L 171.445312 41.257812 L 171.445312 81.007812 C 171.445312 82.007812 170.636719 82.816406 169.636719 82.816406 L 155.164062 82.816406 C 154.164062 82.816406 153.355469 82.007812 153.355469 81.007812 L 153.355469 41.257812 L 138.882812 41.257812 C 138.195312 41.257812 137.566406 40.867188 137.261719 40.25 C 136.957031 39.632812 137.027344 38.898438 137.445312 38.351562 L 160.964844 7.632812 C 161.304688 7.191406 161.835938 6.925781 162.398438 6.925781 C 162.964844 6.925781 163.496094 7.191406 163.835938 7.636719 L 187.355469 38.355469 C 187.601562 38.671875 187.726562 39.058594 187.726562 39.449219 Z M 187.726562 39.449219 "/>
</g>
</g>
</svg>
